<svg xmlns="http://www.w3.org/2000/svg" xmlns:xlink="http://www.w3.org/1999/xlink" viewBox="0 0 1373.98 791.41"><defs><filter id="a"><feOffset input="SourceAlpha"/><feGaussianBlur stdDeviation="13" result="b"/><feFlood/><feComposite operator="in" in2="b"/><feComposite in="SourceGraphic"/></filter><linearGradient id="c" x1="686.42" y1="351.8" x2="739" y2="351.8" gradientUnits="userSpaceOnUse"><stop offset="0" stop-color="#cda035"/><stop offset="0.12" stop-color="#deb850"/><stop offset="0.27" stop-color="#f9df7b"/><stop offset="0.41" stop-color="#fff3a7"/><stop offset="0.57" stop-color="#f9df7b"/><stop offset="0.76" stop-color="#e4c25b"/><stop offset="1" stop-color="#c7992e"/></linearGradient><linearGradient id="d" x1="751.49" y1="351.8" x2="805.4" y2="351.8" xlink:href="#c"/><linearGradient id="e" x1="817.23" y1="351.47" x2="879.02" y2="351.47" xlink:href="#c"/><linearGradient id="f" x1="890.85" y1="351.8" x2="936.21" y2="351.8" xlink:href="#c"/><linearGradient id="g" x1="946.72" y1="351.8" x2="962.5" y2="351.8" xlink:href="#c"/><linearGradient id="h" x1="973.67" y1="351.47" x2="1035.46" y2="351.47" xlink:href="#c"/><linearGradient id="i" x1="482" y1="720.32" x2="413" y2="789.32" xlink:href="#c"/><linearGradient id="j" x1="412.58" y1="720.63" x2="550.8" y2="720.63" gradientUnits="userSpaceOnUse"><stop offset="0.01" stop-color="#fac826"/><stop offset="0.25" stop-color="#fffacb"/><stop offset="0.3" stop-color="#f8eeba"/><stop offset="0.41" stop-color="#e7d18d"/><stop offset="0.55" stop-color="#cba145"/><stop offset="0.6" stop-color="#c2912e"/><stop offset="0.87" stop-color="#edd688"/><stop offset="1" stop-color="#fffacb"/></linearGradient><linearGradient id="k" x1="301.06" y1="791.41" x2="301.06" y2="382.02" xlink:href="#c"/><linearGradient id="l" x1="198.43" y1="586.72" x2="403.7" y2="586.72" xlink:href="#j"/><linearGradient id="m" x1="395.71" y1="477.81" x2="395.71" y2="68.42" xlink:href="#c"/><linearGradient id="n" x1="293.08" y1="273.12" x2="498.35" y2="273.12" xlink:href="#j"/><linearGradient id="o" x1="366.35" y1="129.15" x2="510.61" y2="-15.11" xlink:href="#c"/><linearGradient id="p" x1="294.22" y1="128.29" x2="582.73" y2="128.29" xlink:href="#j"/><linearGradient id="q" x1="145.97" y1="124.87" x2="282.82" y2="124.87" xlink:href="#c"/><linearGradient id="r" x1="145.97" y1="124.87" x2="282.82" y2="124.87" xlink:href="#j"/><linearGradient id="s" x1="34.14" y1="22.89" x2="170.41" y2="159.16" xlink:href="#c"/><linearGradient id="t" x1="0" y1="124.87" x2="136.85" y2="124.87" xlink:href="#j"/><linearGradient id="u" x1="649.45" y1="141.41" x2="649.45" y2="0" xlink:href="#c"/><linearGradient id="v" x1="510.89" y1="70.7" x2="788" y2="70.7" xlink:href="#j"/><linearGradient id="w" x1="731.48" y1="654.74" x2="731.48" y2="468.35" xlink:href="#c"/><linearGradient id="x" x1="695.96" y1="561.55" x2="766.99" y2="561.55" xlink:href="#c"/><linearGradient id="y" x1="823.99" y1="657.19" x2="823.99" y2="468.35" xlink:href="#c"/><linearGradient id="z" x1="781.94" y1="562.77" x2="866.05" y2="562.77" xlink:href="#c"/><linearGradient id="aa" x1="919.98" y1="657.19" x2="919.98" y2="465.9" xlink:href="#c"/><linearGradient id="ab" x1="887.8" y1="561.55" x2="952.16" y2="561.55" xlink:href="#c"/><linearGradient id="ac" x1="1002.34" y1="654.74" x2="1002.34" y2="468.35" xlink:href="#c"/><linearGradient id="ad" x1="961.24" y1="561.55" x2="1043.44" y2="561.55" xlink:href="#c"/><linearGradient id="ae" x1="1104.66" y1="654.74" x2="1104.66" y2="468.35" xlink:href="#c"/><linearGradient id="af" x1="1062.2" y1="561.55" x2="1147.25" y2="561.55" xlink:href="#c"/><linearGradient id="ag" x1="1204.81" y1="657.19" x2="1204.81" y2="468.35" xlink:href="#c"/><linearGradient id="ah" x1="1162.75" y1="562.77" x2="1246.86" y2="562.77" xlink:href="#c"/><linearGradient id="ai" x1="1325.25" y1="654.74" x2="1325.25" y2="468.35" xlink:href="#c"/><linearGradient id="aj" x1="1276.52" y1="561.55" x2="1373.98" y2="561.55" xlink:href="#c"/></defs><g style="filter:url(#a)"><polygon points="704.82 412.28 704.82 305.79 686.42 305.79 686.42 291.33 739 291.33 739 305.79 720.6 305.79 720.6 412.28 704.82 412.28" style="fill:#fff"/><path d="M736,294.33v8.46H717.6V409.28h-9.78V302.79h-18.4v-8.46H736m3-3H686.42v14.46h18.4V412.28H720.6V305.79H739V291.33Z" style="fill:url(#c)"/><polygon points="751.49 412.28 751.49 291.33 766.61 291.33 766.61 344.57 789.62 344.57 789.62 291.33 805.4 291.33 805.4 412.28 789.62 412.28 789.62 359.03 766.61 359.03 766.61 412.28 751.49 412.28" style="fill:#fff"/><path d="M802.4,294.33v115h-9.78V356h-29v53.25h-9.12V294.33h9.12v53.24h29V294.33h9.78m3-3H789.62v53.24h-23V291.33H751.49v121h15.12V359h23v53.25H805.4V291.33Z" style="fill:url(#d)"/><path d="M817.23,412.28l23-121.61h16.44L879,412.28H863.9l-4.6-26.95H837l-4.6,26.95Zm22.35-41.42h17.09l-8.55-50.61h-.65l-7.89,50.61Z" style="fill:#fff"/><path d="M854.17,293.67l21.25,115.61h-9l-4.18-24.46-.42-2.49H834.42l-.43,2.49-4.17,24.46h-9l21.87-115.61h11.45m-18.1,80.19h24.15l-.59-3.49-8.55-50.62-.42-2.5H844.9l-.4,2.54-7.89,50.61-.54,3.46m20.6-83.19H840.23l-23,121.61h15.12l4.6-26.95H859.3l4.6,26.95H879L856.67,290.67Zm-17.09,80.19,7.89-50.61h.65l8.55,50.61Z" style="fill:url(#e)"/><polygon points="890.85 412.28 890.85 291.33 906.63 291.33 906.63 397.82 936.21 397.82 936.21 412.28 890.85 412.28" style="fill:#fff"/><path d="M903.63,294.33V400.82h29.58v8.46H893.85V294.33h9.78m3-3H890.85v121h45.36V397.82H906.63V291.33Z" style="fill:url(#f)"/><rect x="946.72" y="291.33" width="15.78" height="120.95" style="fill:#fff"/><path d="M959.5,294.33v115h-9.78V294.33h9.78m3-3H946.72v121H962.5V291.33Z" style="fill:url(#g)"/><path d="M973.67,412.28l23-121.61h16.43l22.35,121.61h-15.12l-4.6-26.95H993.39l-4.6,26.95ZM996,370.86h17.09l-8.54-50.61h-.66L996,370.86Z" style="fill:#fff"/><path d="M1010.62,293.67l21.24,115.61h-9l-4.18-24.46-.43-2.49H990.86l-.42,2.49-4.18,24.46h-9l21.88-115.61h11.45m-18.1,80.19h24.14l-.59-3.49-8.54-50.62-.43-2.5h-5.76l-.39,2.54-7.89,50.61-.54,3.46m20.59-83.19H996.68l-23,121.61h15.12l4.6-26.95h22.35l4.6,26.95h15.12l-22.35-121.61ZM996,370.86l7.89-50.61h.66l8.54,50.61Z" style="fill:url(#h)"/><path d="M412.82,652.29c-6.84-5.7,135.7,134.56,138,136.84h-138V652.29Z" style="fill:url(#i)"/><path d="M422.82,676.74c18.8,18.74,52.85,52.39,103.59,102.39H422.82V676.74m-10.23-24.62s.05.11.23.31v-.14a1.31,1.31,0,0,0-.23-.17Zm.23.31v136.7h138c-2.17-2.17-131.67-129.6-138-136.7Z" style="fill:url(#j)"/><polygon points="198.43 587.29 403.7 382.02 403.7 791.41 198.43 587.29 198.43 587.29" style="fill:url(#k)"/><path d="M393.7,406.16V767.37L212.59,587.27,393.7,406.16m10-24.14L198.43,587.29,403.7,791.41V382Z" style="fill:url(#l)"/><polygon points="293.08 68.42 498.35 273.69 293.08 477.81 293.08 68.42 293.08 68.42" style="fill:url(#m)"/><path d="M303.08,92.56,484.19,273.67,303.08,453.77V92.56m-10-24.14V477.81L498.35,273.69,293.08,68.42Z" style="fill:url(#n)"/><polygon points="294.22 57.02 582.73 57.02 439.05 199.56 294.22 57.02" style="fill:url(#o)"/><path d="M558.46,67,439,185.51,318.64,67H558.46m24.27-10H294.22L439.05,199.56,582.73,57Z" style="fill:url(#p)"/><polygon points="145.97 57.02 282.82 57.02 282.82 192.72 145.97 192.72 145.97 57.02 145.97 57.02" style="fill:url(#q)"/><path d="M272.82,67v115.7H156V67H272.82m10-10H146v135.7H282.82V57Z" style="fill:url(#r)"/><path d="M136.85,192.72S-1.13,57,0,57H136.85Z" style="fill:url(#s)"/><path d="M126.85,67V168.85c-36.56-36-80-78.85-103-101.83h103m10-10H0c-1.14,0,136.84,135.7,136.84,135.7V57Z" style="fill:url(#t)"/><polygon points="652.3 0 788 0 646.6 141.41 510.89 141.41 652.3 0" style="fill:url(#u)"/><path d="M763.86,10,642.45,131.41H535L656.44,10H763.86M788,0H652.3L510.89,141.41h135.7L788,0Z" style="fill:url(#v)"/><path d="M696.46,654.74V468.35h24v164h46v22.34Z" style="stroke-miterlimit:10;fill:url(#w);stroke:url(#x)"/><path d="M782.44,468.35h24V608.3q0,26.55,17.57,26.55,7.77,0,12.67-6.67t4.91-18.79v-141h24V606.78q0,24.53-12.4,37.47T824,657.19a37.88,37.88,0,0,1-29.7-13.48q-11.85-13.5-11.85-35Z" style="stroke-miterlimit:10;fill:url(#y);stroke:url(#z)"/><path d="M889.53,650V625.18q10.76,10.22,20.84,10.21a17.5,17.5,0,0,0,12.81-5.27,17.25,17.25,0,0,0,5.31-12.71q0-6.4-3-15.53t-16.15-33.72q-13.15-24.6-17.1-37.27t-4-22.34q0-18.81,10.69-30.73t27.32-11.92q9.41,0,20,4.91v22.61q-9.81-5.71-16.76-5.72-18.12,0-18.12,17.71a51,51,0,0,0,3.07,15.74q3.06,9.2,16.21,33.52t17,37.06q3.88,12.74,3.89,22.55,0,19.07-10.7,31t-27.73,11.92A43.78,43.78,0,0,1,889.53,650Z" style="stroke-miterlimit:10;fill:url(#aa);stroke:url(#ab)"/><path d="M990.35,654.74v-164H961.74V468.35h81.2V490.7h-28.61v164Z" style="stroke-miterlimit:10;fill:url(#ac);stroke:url(#ad)"/><path d="M1062.7,654.74V468.35h20q24,0,36.58,14.11t12.6,37.53q0,26.57-19.34,39.92,15,10.64,25.47,56.55l8.59,38.28h-25.14l-7.2-32.15q-7.72-33.8-13.44-43t-14.17-8.24v83.38Zm24-105.73h1.09q20.16,0,20.16-28.2,0-30-21.25-30.11Z" style="stroke-miterlimit:10;fill:url(#ae);stroke:url(#af)"/><path d="M1163.25,468.35h24V608.3q0,26.55,17.58,26.55,7.76,0,12.67-6.67t4.9-18.79v-141h24V606.78q0,24.53-12.4,37.47t-29.15,12.94a37.9,37.9,0,0,1-29.71-13.48q-11.85-13.5-11.85-35Z" style="stroke-miterlimit:10;fill:url(#ag);stroke:url(#ah)"/><path d="M1325.25,536.75l27.66-68.4h20.57V654.74h-23.43l1.5-134.75-.69-.54-23.43,61.31h-4.36l-23.43-61.31-.69.54,1.5,134.75H1277V468.35h20.57Z" style="stroke-miterlimit:10;fill:url(#ai);stroke:url(#aj)"/></g></svg>